/* XPM */
static char *xmoto[] = {
/* columns rows colors chars-per-pixel */
"32 32 216 2 ",
"   c #000200020001",
".  c #017801780178",
"X  c #01A501A50000",
"o  c #02C902C90000",
"O  c #020E020E020E",
"+  c #02F202F202F2",
"@  c #051C051C0006",
"#  c #0347034703F7",
"$  c #03C603C603C7",
"%  c #062006200620",
"&  c #06E306E306E3",
"*  c #07A607A60000",
"=  c #08E408E40000",
"-  c #09D909D90000",
";  c #0B160B160002",
":  c #0C000C000000",
">  c #0CFF0CFF0000",
",  c #0E100E100000",
"<  c #098A098A03E5",
"1  c #0923092305D7",
"2  c #084D084D084D",
"3  c #094109410941",
"4  c #0968096809CE",
"5  c #09ED09ED09ED",
"6  c #0C3A0C3A0C3A",
"7  c #0D770D770D77",
"8  c #0DC90DC90DD3",
"9  c #0F810F810F81",
"0  c #15F215F20000",
"q  c #1169116905E1",
"w  c #193019300000",
"e  c #0FE00FE00FE0",
"r  c #13D713D713D7",
"t  c #1A8F1A8F1A8F",
"y  c #1AF71AF71AF7",
"u  c #1C0F1C0F1C21",
"i  c #23892389002F",
"p  c #242624260000",
"a  c #2D2E2D2E0000",
"s  c #30A030A00007",
"d  c #364436440000",
"f  c #39B639B60000",
"g  c #3B4E3B4E0000",
"h  c #3C653C650000",
"j  c #3E663E660000",
"k  c #244624461B50",
"l  c #27F927F91BEB",
"z  c #21B921B921B9",
"x  c #2C8C2C8C20D4",
"c  c #29FE29FE29FE",
"v  c #2AB62AB62AA9",
"b  c #2ADC2ADC2B2C",
"n  c #2CD72CD72CD7",
"m  c #2E102E102E10",
"M  c #2F522F522F8E",
"N  c #33F233F22AE1",
"B  c #3606360629FA",
"V  c #315A315A315A",
"C  c #324A324A324A",
"Z  c #332F332F332F",
"A  c #33DC33DC33DD",
"S  c #363436343AEA",
"D  c #37C937C937C9",
"F  c #430843080000",
"G  c #443C443C0000",
"H  c #4069406903DA",
"J  c #4A424A420000",
"K  c #4EA34EA30000",
"L  c #4E304E3006CD",
"P  c #563356330000",
"I  c #584458440000",
"U  c #5CB35CB30000",
"Y  c #5DA15DA10000",
"T  c #5E595E590000",
"R  c #5F465F460000",
"E  c #5E8D5E8D0261",
"W  c #5F0F5F0F045B",
"Q  c #605B605B0000",
"!  c #615A615A0000",
"~  c #602260220110",
"^  c #62A562A50000",
"/  c #630163010000",
"(  c #61EB61EB02E5",
")  c #647A647A0000",
"_  c #650D650D0000",
"`  c #678F678F0000",
"'  c #6444644404A3",
"]  c #6599659904AF",
"[  c #65D865D80605",
"{  c #68A168A10000",
"}  c #697F697F0004",
"|  c #6A716A710000",
" . c #6B546B540000",
".. c #6CA86CA80000",
"X. c #74D574D50000",
"o. c #76AD76AD0034",
"O. c #413B413B3760",
"+. c #65B265B22961",
"@. c #43A143A14443",
"#. c #431A431A44FE",
"$. c #441A441A446A",
"%. c #461746174617",
"&. c #46EC46EC46EC",
"*. c #47DF47DF47DF",
"=. c #49A349A349A3",
"-. c #4A694A694A69",
";. c #4B474B474B5C",
":. c #4C614C614C61",
">. c #4D534D534D53",
",. c #4E524E524E52",
"<. c #4F384F384F38",
"1. c #516251625162",
"2. c #5CC15CC1577A",
"3. c #58E258E258E3",
"4. c #607760775D2B",
"5. c #630563056305",
"6. c #67A667A667A6",
"7. c #687D687D608C",
"8. c #684568456845",
"9. c #6AC46AC469B4",
"0. c #6A2F6A2F6A4A",
"q. c #6ACD6ACD6AFC",
"w. c #6C6E6C6E6C6E",
"e. c #6DBC6DBC6DBC",
"r. c #6F566F566F56",
"t. c #729A729A729A",
"y. c #734473447344",
"u. c #74777477747B",
"i. c #788278827883",
"p. c #79A279A279A2",
"a. c #7AB87AB87AB8",
"s. c #7B8F7B8F7B8F",
"d. c #7CFA7CFA7DAD",
"f. c #7EA47EA47EA4",
"g. c #917F917F0000",
"h. c #93B393B30000",
"j. c #96E796E70000",
"k. c #975397530000",
"l. c #985698560000",
"z. c #993399330000",
"x. c #9AF19AF10000",
"c. c #9B559B550000",
"v. c #9C629C620000",
"b. c #9D899D890008",
"n. c #9E8B9E8B0002",
"m. c #9FDC9FDC0000",
"M. c #9CCF9CCF02C3",
"N. c #842B842B1AB0",
"B. c #A0B8A0B80001",
"V. c #A1A8A1A80004",
"C. c #A297A2970000",
"Z. c #A40BA40B0000",
"A. c #A445A4450000",
"S. c #B3FEB3FE0000",
"D. c #BAF3BAF30000",
"F. c #BBD9BBD90000",
"G. c #BC76BC760000",
"H. c #C0C5C0C50000",
"J. c #C39CC39C0000",
"K. c #C4BCC4BC0000",
"L. c #D62CD62C0000",
"P. c #DBD4DBD40000",
"I. c #DC9CDC9C0000",
"U. c #E656E6560000",
"Y. c #E66EE66E0000",
"T. c #EBC5EBC50000",
"R. c #ED13ED130000",
"E. c #EE20EE200000",
"W. c #EED9EED90000",
"Q. c #F1D9F1D90000",
"!. c #F2CDF2CD0000",
"~. c #F3B0F3B00000",
"^. c #F4EEF4EE0000",
"/. c #F62FF62F0000",
"(. c #F718F7180000",
"). c #F807F8070000",
"_. c #F91BF91B0000",
"`. c #F9D2F9D20000",
"'. c #FB4BFB4B0000",
"]. c #FC12FC120000",
"[. c #FD5CFD5C0000",
"{. c #FE74FE740000",
"}. c #FFCEFFCE0000",
"|. c #809480948094",
" X c #816281628162",
".X c #826E826E826E",
"XX c #83BD83BD83BD",
"oX c #84CD84CD84CD",
"OX c #853C853C853C",
"+X c #868B868B868B",
"@X c #866386638735",
"#X c #88A688A688A6",
"$X c #89CC89CC89CC",
"%X c #8A668A668A66",
"&X c #8B8D8B8D8B8D",
"*X c #8D938D938D93",
"=X c #8FD68FD690B9",
"-X c #923892389238",
";X c #93E093E093E0",
":X c #958E958E958E",
">X c #980C980C980C",
",X c #98F498F498F4",
"<X c #A111A111A111",
"1X c #A174A174A174",
"2X c #AD80AD80AD80",
"3X c #AFBAAFBAAFBA",
"4X c #B07AB07AB07A",
"5X c #B132B132B132",
"6X c #B52CB52CB52C",
"7X c #B5F4B5F4B5F4",
"8X c #B6A9B6A9B6A9",
"9X c #B75BB75BB75B",
"0X c #BB4BBB4BBB4B",
"qX c #BF23BF23BFC3",
"wX c #C19BC19BC19B",
"eX c None",
/* pixels */
"eXeXeXeXeX6X6X6X6XeXeXeXeXeXeXeXeXeXeXeXeXeX0X6X6XeXeXeX6X6X6XeX",
"eXeXeXeXeX8.;.;.>.d.6X9X6XeXeXeXeXeXeXeXeXeXr.>.oX6X6X3Xr.>.oXeX",
"eXeXeXeX5.u     # M ;.>.1.&X5Xr.s.eXeXeX1X8.u   M >.;.*.u   A oX",
"eXeXeX6X>.              3 r.r.z a.eXeXeX8.t                 3 y.",
"eXeXeXeXoXM             $ b u $ y.eXeXr.t                 $ r u.",
"eXeXeXeX6X>.                  @ C #X6X;.                3 >.a.$X",
"eXeXeXeXeXoXA $                 3 a.4X%.              3 1.,XeXeX",
"eXeXeXeXeXeX.XC                 3 u.y.t             3 >.:XeXeXeX",
"eXeXeXeXeXeXeXd.M $             3 8.#.            3 ;.=XeXeXeXeX",
"eXeX, eXeXeXeXO.4.b @ * * *     1 N l * * * * * 1 %.2.x , , eXeX",
",  .j.J eXeXX.m.+.l  .C.m.c.G * _ C.C.C.C.C.m.c.H B N.m.m.c._ eX",
", m.^._ * 0 C.]._ / P.].].].D.G m.^.^.}.}.].].W._ / P.].^.].D.P ",
", m.].H.I X.I.^...m.^.m._ K.Q._ g E  .H.].c.' W s m.^.m. .H.Q. .",
", c.}.^.K.L.}.^. .m.Q.E * m.Q.E     * m.Q.' #.S * m.Q.E * m.Q. .",
", m.^.C.S.m.K.^. .c.Q.E , m.Q./     , m.Q.' M eX, m.Q.E , m.Q. .",
", m.Q./ d a C.^. .m.Q./ , m.Q./     , m.Q.E   eX, m.Q./ * m.Q. .",
", m.Q./   * m.^. .m.Q. .w C.Q./     , m.Q./ & eX, m.Q. .w C.Q...",
", m.Q.E   , m.]. .j.].K.A.P.W.E     , m.Q.' 3.eXq j.].H.C.I.W._ ",
", j.U.E eX, j.T.E h D.Q.Q.W.g.i     * j.U.E A oX7.K G.Q.Q.W.j.g ",
"eXP / J eXeXL / p   h / / E p #     @ h E p 3 u.qXeXJ / E E g eX",
"eXeXeXeXeXeXw.b             3 %.M           $ C a.eXeX      eXeX",
"eXeXeXeXeXeXw.u             9 y.>.              C a.eXeXeXeXeXeX",
"eXeXeXeX1X8.u             $ >.:XoXM             @ C y.eXeXeXeXeX",
"eXeXeXeX8.u               $ a.eX6X>.                C .XeXeXeXeX",
"eXeX1X8.t                 9 d.eX6X;.                3 y.9XeXeXeX",
"eXeXr.t                 3 >.-XeX6X>.                $ C oXeXeXeX",
"eX3X%.              $ 9 1.:XeXeXeXoXA 3 $               C .XeXeX",
"6X8.t             3 >.a.:XeXeXeXeXeX$Xu.A $ $ $ & #     # C $XeX",
"6X;.          $ e >.-XwXeXeXeXeXeXeXeX0X.Xu.A >.y.A $     $ a.eX",
"6X1.      $ 9 >.a.$XeXeXeXeXeXeXeXeXeXeXeXeX$X*XeXa.C $ $ 9 a.eX",
"6XoXA 3 e >.a.,XeXeXeXeXeXeXeXeXeXeXeXeXeXeXeXeXeXeXa.a.a.a.eXeX",
"eXeXoXr.y.*XeXeXeXeXeXeXeXeXeXeXeXeXeXeXeXeXeXeXeXeXeXeXeXeXeXeX"
};
